<svg width="467" height="472" viewBox="0 0 467 472" fill="none" xmlns="http://www.w3.org/2000/svg">
<path d="M233.5 424L75.4035 141L390 138.418L233.5 424ZM233.5 424C335.949 424 419 339.83 419 236C419 132.17 335.949 48 233.5 48C131.051 48 47.9999 132.17 47.9999 236C47.9999 339.83 131.051 424 233.5 424ZM233.534 470L225.534 462.5C225.534 462.5 219.59 457.717 215.534 455C211.75 452.466 205.534 449 205.534 449C205.534 449 200.732 446.194 198.534 443.5C197.095 441.735 196.241 440.665 195.534 438.5C194.805 436.265 195.034 432.5 195.034 432.5L196.5 425.5V420.735M234.034 470L242.034 462.5C242.034 462.5 247.978 457.717 252.034 455C255.818 452.466 262.034 449 262.034 449C262.034 449 266.837 446.194 269.034 443.5C270.474 441.735 271.328 440.665 272.034 438.5C272.764 436.265 272.534 432.5 272.534 432.5L272.034 425.5L271.61 420.5L273.843 430.381C273.843 430.381 275.08 433.945 276.614 435.727C278.099 437.453 279.3 438.112 281.308 439.187C284.373 440.827 289.885 441.568 289.885 441.568C289.885 441.568 296.956 442.374 301.424 443.257C306.213 444.203 313.541 446.33 313.541 446.33L323.811 450.173M324.273 449.98L328.769 439.979C328.769 439.979 332.414 433.276 335.112 429.207C337.629 425.412 342.032 419.82 342.032 419.82C342.032 419.82 345.384 415.382 346.375 412.05C347.025 409.867 347.401 408.55 347.22 406.28C347.033 403.936 345.372 400.55 345.372 400.55L341.39 395.5L338.5 392L342.216 396.5L346.15 402.151C346.15 402.151 348.742 404.891 350.872 405.885C352.935 406.849 354.301 406.957 356.573 407.112C360.041 407.348 365.372 405.759 365.372 405.759C365.372 405.759 372.149 403.589 376.586 402.558C381.34 401.453 388.895 400.382 388.895 400.382L399.837 399.666M400.179 399.301L400.169 388.335C400.169 388.335 400.739 380.726 401.527 375.909C402.262 371.414 403.979 364.508 403.979 364.508C403.979 364.508 405.212 359.084 404.747 355.639C404.442 353.382 404.244 352.027 403.146 350.032C402.013 347.972 399.107 345.567 399.107 345.567L393.655 342.005M393.655 342.005L389.298 339.5M393.655 342.005L398.63 345.672C398.63 345.672 402.044 347.275 404.39 347.422C406.663 347.565 407.973 347.166 410.145 346.48C413.46 345.432 417.84 342.005 417.84 342.005C417.84 342.005 423.356 337.507 427.108 334.926C431.13 332.16 437.77 328.401 437.77 328.401L447.694 323.735M447.878 323.271L443.861 313.067C443.861 313.067 441.61 305.777 440.583 301.005C439.624 296.552 438.698 289.496 438.698 289.496C438.698 289.496 437.863 283.997 436.171 280.96C435.062 278.971 434.383 277.782 432.632 276.326C430.824 274.823 427.108 274.731 427.108 274.731L420 273M420 273L415.588 272.077M420 273L426.499 274.699C426.499 274.699 430.261 274.98 432.506 274.282C434.68 273.605 435.762 272.766 437.546 271.351C440.27 269.19 443.142 264.427 443.142 264.427C443.142 264.427 446.693 258.259 449.279 254.511C452.051 250.492 456.916 244.615 456.916 244.615L464.526 236.719M420 273L415.438 272.852M464.532 236.219L457.143 228.116C457.143 228.116 452.442 222.107 449.782 218.014C447.299 214.196 443.92 207.932 443.92 207.932C443.92 207.932 441.18 203.092 438.517 200.857C436.772 199.394 435.713 198.525 433.558 197.789C431.333 197.029 427.566 197.206 427.566 197.206L420.5 198.5L415.438 199.148M2.53715 236.719L10.1465 244.615C10.1465 244.615 15.0113 250.492 17.7835 254.511C20.3697 258.259 23.9205 264.427 23.9205 264.427C23.9205 264.427 26.7924 269.19 29.5163 271.351C31.3005 272.766 32.3829 273.605 34.5571 274.282C36.8022 274.98 40.5635 274.699 40.5635 274.699L47.5559 274.103L51.7134 273.614M2.53027 236.219L9.91946 228.116C9.91946 228.116 14.6206 222.107 17.2811 218.014C19.7633 214.196 23.1429 207.932 23.1429 207.932C23.1429 207.932 25.8826 203.092 28.5461 200.857C30.2907 199.394 31.3495 198.525 33.5043 197.789C35.7293 197.029 39.4969 197.206 39.4969 197.206L46.5031 197.61L50.5318 198.5M19.052 326.296L29.0569 330.785C29.0569 330.785 35.7625 334.425 39.8329 337.12C43.6305 339.634 49.225 344.033 49.225 344.033C49.225 344.033 53.6659 347.382 56.9989 348.37C59.1821 349.018 60.4993 349.393 62.7691 349.21C65.1128 349.022 68.4979 347.358 68.4979 347.358L74.7637 344.197L79.6455 341.615M18.8592 325.835L22.6943 315.561C22.6943 315.561 24.8156 308.232 25.7581 303.443C26.6374 298.974 27.438 291.902 27.438 291.902C27.438 291.902 28.175 286.389 29.8133 283.323C30.8864 281.314 31.5449 280.113 33.2698 278.627C35.0508 277.092 38.6129 275.852 38.6129 275.852L45.2644 273.614L51.4937 272.5M70.0953 401.805L81.0472 402.358C81.0472 402.358 88.6166 403.317 93.3875 404.35C97.8384 405.315 104.648 407.384 104.648 407.384C104.648 407.384 110.001 408.893 113.466 408.605C115.735 408.416 117.099 408.288 119.148 407.294C121.263 406.267 123.814 403.489 123.814 403.489L128.506 398.27L132.118 394.092M69.7482 401.446L69.5939 390.481C69.5939 390.481 68.911 382.882 68.0512 378.076C67.2491 373.593 65.4288 366.713 65.4288 366.713C65.4288 366.713 64.115 361.308 64.5289 357.856C64.8 355.596 64.9779 354.237 66.0457 352.226C67.1482 350.149 70.0176 347.701 70.0176 347.701L75.4035 343.202L79.2738 340.5M144.375 451.814L154.795 448.399C154.795 448.399 162.205 446.576 167.029 445.829C171.529 445.132 178.627 444.619 178.627 444.619C178.627 444.619 184.166 444.106 187.296 442.594C189.347 441.603 190.573 440.994 192.129 439.33C193.735 437.613 195.118 434.104 195.118 434.104L196.5 427.5L198.534 421.5M143.922 451.602L139.842 441.424C139.842 441.424 136.477 434.576 133.95 430.399C131.592 426.503 127.424 420.735 127.424 420.735C127.424 420.735 124.258 416.161 123.405 412.791C122.847 410.583 122.525 409.252 122.8 406.992C123.084 404.657 124.883 401.343 124.883 401.343L129 396L131 392.717M18.0738 146.924L21.8467 157.22C21.8467 157.22 23.9237 164.562 24.8373 169.357C25.6896 173.831 26.4473 180.907 26.4473 180.907C26.4473 180.907 27.1511 186.425 28.7708 189.501C29.8317 191.516 30.483 192.721 32.1988 194.218C33.9705 195.764 37.5251 197.025 37.5251 197.025L44.1629 199.303L50.5318 200.857M18.2694 146.464L28.3012 142.035C28.3012 142.035 35.0287 138.436 39.1154 135.766C42.928 133.275 48.549 128.91 48.549 128.91C48.549 128.91 53.0101 125.587 56.349 124.619C58.536 123.985 59.8555 123.617 62.1241 123.814C64.4666 124.017 67.8416 125.701 67.8416 125.701L74.0882 128.899L78.9544 131.511M446.914 149.248L442.917 159.46C442.917 159.46 440.681 166.754 439.663 171.529C438.713 175.983 437.801 183.041 437.801 183.041C437.801 183.041 436.977 188.542 435.291 191.582C434.186 193.573 433.509 194.764 431.761 196.223C429.956 197.73 426.375 198.913 426.375 198.913L420.5 200L415.8 201.046M446.728 148.784L436.795 144.137C436.795 144.137 430.148 140.392 426.12 137.634C422.363 135.06 416.838 130.574 416.838 130.574C416.838 130.574 412.451 127.155 409.134 126.114C406.961 125.432 405.65 125.036 403.378 125.183C401.031 125.335 397.62 126.945 397.62 126.945L391.306 130.007L387.888 131.746M396.812 69.6442L397.483 80.5896C397.483 80.5896 398.522 88.1483 399.607 92.9077C400.62 97.348 402.762 104.135 402.762 104.135C402.762 104.135 404.328 109.472 404.077 112.939C403.913 115.211 403.799 116.575 402.827 118.635C401.824 120.761 399.073 123.341 399.073 123.341L393.904 128.089L389 131.18M396.449 69.3011L385.483 69.2644C385.483 69.2644 377.877 68.6632 373.063 67.8551C368.571 67.1011 361.672 65.3549 361.672 65.3549C361.672 65.3549 356.253 64.0992 352.806 64.5501C350.548 64.8455 349.192 65.0379 347.193 66.1272C345.128 67.252 342.711 70.1476 342.711 70.1476L339.5 75.2829L336.5 79.6205M324.119 19.6007L328.624 29.5982C328.624 29.5982 332.275 36.2978 334.976 40.3639C337.497 44.1573 341.905 49.7446 341.905 49.7446C341.905 49.7446 345.261 54.18 346.255 57.5113C346.907 59.6934 347.284 61.01 347.105 63.2801C346.92 65.6241 345.262 69.0119 345.262 69.0119L342.112 75.2829L337.915 80.5896M323.657 19.4087L313.39 23.2606C313.39 23.2606 306.064 25.394 301.276 26.3444C296.809 27.2311 289.739 28.0432 289.739 28.0432C289.739 28.0432 284.227 28.7894 281.163 30.4327C279.157 31.509 277.957 32.1696 276.473 33.8969C274.941 35.6804 273.707 39.2446 273.707 39.2446L271.48 45.8997L269.829 51.1698M234.034 2L242.034 9.5C242.034 9.5 247.978 14.2834 252.034 17C255.818 19.5345 262.034 23 262.034 23C262.034 23 266.837 25.806 269.034 28.5C270.474 30.2646 271.328 31.3353 272.034 33.5C272.764 35.7352 272.534 39.5 272.534 39.5L272.034 46.5L271.534 52M233.534 2L225.534 9.5C225.534 9.5 219.59 14.2834 215.534 17C211.75 19.5345 205.534 23 205.534 23C205.534 23 200.732 25.806 198.534 28.5C197.095 30.2646 196.241 31.3353 195.534 33.5C194.805 35.7352 195.034 39.5 195.034 39.5L195.534 46.5L197.316 51.5746M144.905 21.1169L155.206 24.8773C155.206 24.8773 162.55 26.9453 167.347 27.8531C171.822 28.7 178.899 29.4492 178.899 29.4492C178.899 29.4492 184.417 30.1462 187.495 31.7622C189.512 32.8207 190.717 33.4705 192.216 35.1845C193.764 36.9543 195.03 40.5074 195.03 40.5074L197.316 47.1424L198.534 51.3349M144.445 21.313L140.029 31.3502C140.029 31.3502 136.438 38.082 133.773 42.1719C131.286 45.9876 126.928 51.6139 126.928 51.6139C126.928 51.6139 123.611 56.079 122.647 59.4191C122.015 61.6069 121.649 62.9268 121.849 65.1952C122.054 67.5375 123.743 70.9104 123.743 70.9104L126.949 77.1531L129.5 80.3031M69.991 69.8577L80.955 69.66C80.955 69.66 88.5515 68.9471 93.3533 68.0683C97.8332 67.2485 104.706 65.401 104.706 65.401C104.706 65.401 110.106 64.0659 113.559 64.4662C115.821 64.7283 117.18 64.9008 119.195 65.9607C121.276 67.055 123.736 69.9147 123.736 69.9147L128.256 75.2828L130.5 79M69.6324 70.2061L69.1231 81.1602C69.1231 81.1602 68.1945 88.7333 67.1796 93.5081C66.2326 97.9629 64.1906 104.78 64.1906 104.78C64.1906 104.78 62.7024 110.14 63.0043 113.603C63.2021 115.872 63.3359 117.235 64.338 119.28C65.3727 121.391 68.1613 123.931 68.1613 123.931L73.3987 128.602L78.9544 131.985M325.702 232.709C325.702 284.071 284.064 325.709 232.702 325.709C181.339 325.709 139.702 284.071 139.702 232.709C139.702 181.347 181.339 139.709 232.702 139.709C284.064 139.709 325.702 181.347 325.702 232.709Z" stroke="#282828" stroke-width="4" stroke-linecap="round" stroke-linejoin="round"/>
</svg>
