<svg width="470" height="467" viewBox="0 0 470 467" fill="none" xmlns="http://www.w3.org/2000/svg">
<path d="M125 341.875C125 350.15 124.377 358.623 125 366.875C125.311 371.006 125.281 373.416 126.5 377.375C127.784 381.548 129.012 383.787 131.5 387.375C134.097 391.121 136.144 393.29 139.5 396.375C145.607 401.99 153.164 406.115 160.5 409.875C168.315 414.343 176.598 417.647 184.5 421.875C195.282 427.645 207.229 434.519 216.5 442.375C221.335 446.473 225.214 452.277 229 457.375C231.098 460.201 234 464.875 234 464.875C234 464.875 236.901 460.201 239 457.375C242.785 452.277 246.664 446.473 251.5 442.375C260.77 434.519 272.718 427.645 283.5 421.875C291.401 417.647 299.684 414.343 307.5 409.875C314.835 406.115 322.392 401.99 328.5 396.375C331.856 393.29 333.902 391.121 336.5 387.375C338.987 383.787 340.216 381.548 341.5 377.375C342.718 373.416 342.688 371.006 343 366.875C343.622 358.623 343 350.15 343 341.875M345.323 344.449C353.597 344.361 362.076 344.893 370.322 344.183C374.448 343.827 376.859 343.831 380.805 342.571C384.964 341.243 387.19 339.991 390.751 337.465C394.47 334.828 396.617 332.758 399.666 329.37C405.215 323.202 409.259 315.602 412.941 308.227C417.326 300.365 420.541 292.047 424.685 284.101C430.34 273.258 437.087 261.238 444.844 251.884C448.889 247.006 454.652 243.065 459.71 239.225C462.513 237.097 467.156 234.146 467.156 234.146C467.156 234.146 462.452 231.294 459.603 229.226C454.465 225.495 448.62 221.678 444.471 216.886C436.517 207.7 429.516 195.826 423.632 185.106C419.319 177.25 415.928 169.003 411.377 161.235C407.538 153.941 403.333 146.428 397.654 140.38C394.534 137.057 392.343 135.034 388.57 132.477C384.955 130.027 382.703 128.823 378.517 127.583C374.545 126.407 372.135 126.463 368.002 126.195C359.743 125.66 351.277 126.373 343.003 126.461M343.458 125C343.458 116.726 344.081 108.252 343.458 100C343.146 95.8696 343.176 93.459 341.958 89.5C340.674 85.3269 339.446 83.0882 336.958 79.5C334.361 75.7538 332.314 73.5849 328.958 70.5C322.85 64.8857 315.294 60.7607 307.958 57C300.143 52.5319 291.86 49.2285 283.958 45C273.176 39.2302 261.229 32.3559 251.958 24.5C247.123 20.4028 243.244 14.5984 239.458 9.5C237.36 6.67383 234.458 2 234.458 2C234.458 2 231.557 6.67383 229.458 9.5C225.672 14.5984 221.793 20.4028 216.958 24.5C207.688 32.3559 195.74 39.2302 184.958 45C177.056 49.2285 168.774 52.5319 160.958 57C153.623 60.7607 146.066 64.8857 139.958 70.5C136.602 73.5849 134.555 75.7538 131.958 79.5C129.471 83.0882 128.242 85.3269 126.958 89.5C125.74 93.459 125.77 95.8696 125.458 100C124.835 108.252 125.458 116.726 125.458 125M125 125.152C116.726 125.152 108.252 124.529 100 125.152C95.8696 125.464 93.459 125.434 89.5 126.652C85.3269 127.936 83.0882 129.164 79.5 131.652C75.7538 134.249 73.5849 136.296 70.5 139.652C64.8857 145.76 60.7607 153.317 57 160.652C52.5319 168.467 49.2285 176.75 45 184.652C39.2302 195.434 32.3559 207.381 24.5 216.652C20.4028 221.487 14.5984 225.366 9.5 229.152C6.67383 231.251 2 234.152 2 234.152C2 234.152 6.67383 237.053 9.5 239.152C14.5984 242.938 20.4028 246.817 24.5 251.652C32.3559 260.923 39.2302 272.87 45 283.652C49.2285 291.554 52.5319 299.837 57 307.652C60.7607 314.987 64.8857 322.544 70.5 328.652C73.5849 332.008 75.7538 334.055 79.5 336.652C83.0882 339.14 85.3269 340.368 89.5 341.652C93.459 342.87 95.8696 342.84 100 343.152C108.252 343.775 116.726 343.152 125 343.152M389 235.875C389 321.479 319.604 390.875 234 390.875C148.395 390.875 78.9996 321.479 78.9996 235.875C78.9996 150.271 148.395 80.8753 234 80.8753C319.604 80.8753 389 150.271 389 235.875ZM125 126.875H343V344.875H125V126.875ZM234 344.875L127.479 160.375L340.521 160.375L234 344.875Z" stroke="#282828" stroke-width="4" stroke-linecap="round" stroke-linejoin="round"/>
</svg>
