<svg width="407" height="471" viewBox="0 0 407 471" fill="none" xmlns="http://www.w3.org/2000/svg">
<path d="M37.4293 236C37.4293 327.679 111.75 402 203.429 402C295.109 402 369.429 327.679 369.429 236C369.429 144.321 295.109 70 203.429 70C111.75 70 37.4293 144.321 37.4293 236ZM37.4293 236C30.0757 231.674 21.6941 225.524 16.4691 218.431C14.5416 215.815 13.7688 214.078 12.7174 211.003C11.0698 206.185 10.9163 200.873 10.6136 195.843C10.2286 189.445 10.6925 183.664 11.2003 177.337L11.2226 177.058C12.2245 164.568 11.7661 151.497 9.09416 139.26C7.5183 132.042 7.08007 124.784 2.65558 118.649C10.1674 119.536 16.4709 116.824 23.5449 114.695C35.539 111.086 47.1864 105.136 57.6171 98.1926L57.8495 98.0379C63.1335 94.5201 67.9606 91.3064 73.7406 88.5343C78.2837 86.3554 83.0014 83.909 88.0134 83.0082C91.212 82.4333 93.1052 82.2652 96.3285 82.6788C105.066 83.8001 113.646 87.5533 121 91.8792C121 83.3476 121.273 72.5998 124.736 64.5C126.014 61.512 127.119 59.9654 129.236 57.5C132.554 53.6368 137.055 50.811 141.236 48C146.557 44.4236 151.774 41.8925 157.485 39.1219L157.736 39C169.01 33.5303 180.044 26.5078 189.236 18C194.658 12.9822 200.456 8.92426 203.5 2C206.544 8.92426 212.315 12.9822 217.736 18C226.929 26.5078 237.963 33.5303 249.237 39L249.488 39.1219C255.199 41.8925 260.416 44.4236 265.736 48C269.918 50.811 274.419 53.6368 277.736 57.5C279.854 59.9654 280.959 61.512 282.236 64.5C285.7 72.5997 286.5 83.7171 286.5 92.2488C293.866 87.9446 302.301 83.6184 311.042 82.523C314.267 82.1189 316.159 82.2926 319.356 82.8769C324.365 83.7925 329.076 86.2529 333.613 88.4451C339.384 91.2343 344.202 94.4622 349.475 97.9956L349.707 98.151C360.118 105.126 371.747 111.109 383.731 114.754C390.798 116.904 397.486 119.865 405 119C400.557 125.122 399.706 132.149 398.109 139.362C395.401 151.591 394.904 164.66 395.869 177.154L395.89 177.432C396.379 183.761 396.826 189.543 396.422 195.94C396.105 200.969 395.935 206.28 394.274 211.094C393.213 214.166 392.435 215.9 390.5 218.511C385.254 225.588 376.794 232.533 369.427 236.837C376.706 241.288 384.877 248.351 389.98 255.532C391.863 258.181 392.606 259.931 393.604 263.023C395.17 267.869 395.232 273.183 395.449 278.217C395.725 284.621 395.162 290.393 394.547 296.711L394.519 296.989C393.304 309.46 393.54 322.537 396.002 334.818C397.455 342.061 398.03 348.899 402.349 355.109C394.853 354.094 388.243 357.125 381.134 359.132C369.08 362.537 357.333 368.286 346.785 375.051L346.55 375.202C341.207 378.629 336.326 381.759 330.499 384.432C325.919 386.533 321.161 388.899 316.134 389.714C312.926 390.234 311.03 390.37 307.814 389.901C299.097 388.631 292.472 384.951 285.193 380.5C285.193 389.032 285.393 397.9 281.929 406C280.651 408.988 279.547 410.535 277.429 413C274.112 416.863 269.611 419.689 265.429 422.5C260.109 426.076 254.892 428.607 249.181 431.378L248.929 431.5C237.655 436.97 226.622 443.992 217.429 452.5C212.008 457.518 206.044 461.576 203 468.5C199.956 461.576 194.351 457.518 188.929 452.5C179.737 443.992 168.703 436.97 157.429 431.5L157.178 431.378C151.467 428.607 146.249 426.076 140.929 422.5C136.748 419.689 132.247 416.863 128.929 413C126.812 410.535 125.707 408.988 124.429 406C120.965 397.9 120.79 388.532 120.79 380C113.484 384.407 106.217 390.05 97.4921 391.267C94.2734 391.717 92.3785 391.569 89.1738 391.03C84.1522 390.185 79.4077 387.79 74.8408 385.662C69.0305 382.954 64.1682 379.794 58.8457 376.334L58.6116 376.182C48.1048 369.354 36.3924 363.534 24.3591 360.057C17.262 358.006 10.5016 355.364 3 356.334C7.35644 350.151 8.14185 342.888 9.63787 335.654C12.1744 323.388 12.4884 310.313 11.3485 297.834L11.3231 297.556C10.7455 291.234 10.2178 285.459 10.5321 279.057C10.7791 274.024 10.874 268.711 12.4682 263.874C13.4856 260.788 14.2391 259.043 16.1376 256.405C21.2839 249.256 30.1239 240.407 37.4293 236ZM340.429 236.5C340.429 312.439 278.868 374 202.929 374C126.99 374 65.4293 312.439 65.4293 236.5C65.4293 160.561 126.99 99 202.929 99C278.868 99 340.429 160.561 340.429 236.5ZM309.429 205C309.429 263.542 261.971 311 203.429 311C144.887 311 97.4293 263.542 97.4293 205C97.4293 146.458 144.887 99 203.429 99C261.971 99 309.429 146.458 309.429 205Z" stroke="#282828" stroke-width="4" stroke-linejoin="round"/>
</svg>
