<svg width="472" height="474" viewBox="0 0 472 474" fill="none" xmlns="http://www.w3.org/2000/svg">
<path d="M157.269 223.5C157.269 223.5 151.759 225.024 147.563 226.235C143.104 227.521 140.616 228.473 136.563 230.735C133.015 232.715 128.063 236.735 128.063 236.735C128.063 236.735 123.359 241.461 121.563 245.235C119.752 249.041 119.671 251.564 119.063 255.735C118.078 262.497 119.063 273.235 119.063 273.235C119.063 273.235 119.689 284.537 119.063 291.735C118.791 294.871 118.826 296.68 118.063 299.735C117.089 303.64 114.063 309.235 114.063 309.235M209.56 310.263C209.56 310.263 206.711 314.486 203.73 317.676C200.561 321.067 198.585 322.853 194.731 325.44C191.358 327.704 185.529 330.295 185.529 330.295C185.529 330.295 179.183 332.344 175.006 332.233C170.792 332.122 168.507 331.05 164.514 329.7C158.04 327.512 148.917 321.765 148.917 321.765C148.917 321.765 139.127 316.082 132.428 313.376C129.509 312.196 127.913 311.345 124.844 310.639C120.921 309.737 114.563 309.896 114.563 309.896M121.96 440.251C121.96 440.251 122.048 433.892 121.101 429.979C120.361 426.919 119.492 425.332 118.279 422.427C115.497 415.759 109.705 406.034 109.705 406.034C109.705 406.034 108.254 403.787 106.518 400.735M122.71 440.606C122.71 440.606 128.269 437.517 132.164 436.499C135.21 435.702 137.019 435.716 140.152 435.409C147.342 434.702 158.651 435.2 158.651 435.2C158.651 435.2 160.696 435.364 163.563 435.462M238.246 471.783C238.246 471.783 235.125 466.242 232.34 463.335C230.162 461.062 228.613 460.127 226.104 458.225C220.348 453.86 210.451 448.364 210.451 448.364C210.451 448.364 208.067 447.152 205.032 445.386M239.073 471.713C239.073 471.713 242.327 466.248 245.181 463.41C247.414 461.19 248.984 460.293 251.538 458.452C257.399 454.227 267.425 448.972 267.425 448.972C267.425 448.972 271.036 446.743 273.563 445.386M357.811 439.179C357.811 439.179 352.366 435.893 348.511 434.734C345.496 433.828 343.688 433.778 340.567 433.357C333.407 432.392 322.088 432.483 322.088 432.483C322.088 432.483 321.075 433.4 317.563 433.357M358.496 438.711C358.496 438.711 358.637 432.352 359.724 428.476C360.574 425.445 361.5 423.891 362.816 421.031C365.836 414.468 371.975 404.957 371.975 404.957C371.975 404.957 374.032 401.16 375.563 398.735M438.341 352.09C438.341 352.09 432.008 352.681 428.219 354.04C425.255 355.102 423.771 356.135 421.011 357.651C414.678 361.128 405.626 367.925 405.626 367.925C405.626 367.925 401.413 370.683 398.563 372.735M438.614 351.307C438.614 351.307 434.95 346.108 433.522 342.345C432.405 339.401 432.226 337.601 431.586 334.518C430.117 327.444 429.405 316.147 429.405 316.147C429.405 316.147 429.614 313.596 429.405 310.735M469.269 236.207C469.269 236.207 463.582 239.054 460.543 241.694C458.166 243.759 457.157 245.26 455.134 247.673C450.493 253.21 444.522 262.826 444.522 262.826C444.522 262.826 444.975 262.789 443.063 265.735M469.239 235.378C469.239 235.378 463.94 231.862 461.244 228.872C459.136 226.534 458.317 224.921 456.602 222.28C452.668 216.221 447.909 205.95 447.909 205.95C447.909 205.95 445.754 202.325 444.522 199.735M437.878 118.272C437.878 118.272 434.94 123.913 434.026 127.833C433.312 130.899 433.375 132.707 433.151 135.848C432.638 143.054 433.439 154.345 433.439 154.345C433.439 154.345 433.848 158.728 434.026 162.235M437.368 117.618C437.368 117.618 431.013 117.876 427.076 117.035C423.997 116.377 422.388 115.551 419.451 114.417C412.711 111.815 402.834 106.286 402.834 106.286C402.834 106.286 400.081 104.111 397.564 102.735M353.526 34.3109C353.526 34.3109 353.535 40.6708 354.54 44.5686C355.327 47.6172 356.22 49.1902 357.477 52.0771C360.36 58.7016 366.299 68.3378 366.299 68.3378C366.299 68.3378 366.781 68.7091 368.563 71.7347M352.771 33.9676C352.771 33.9676 347.258 37.1399 343.38 38.2178C340.346 39.0608 338.537 39.0739 335.409 39.4293C328.231 40.2448 316.916 39.9192 316.916 39.9192C316.916 39.9192 314.868 39.7858 312 39.7321M238.312 2.84448C238.312 2.84448 241.607 8.28464 244.482 11.1017C246.731 13.305 248.309 14.1901 250.876 16.0122C256.768 20.1935 266.833 25.3734 266.833 25.3734C266.833 25.3734 269.974 27.0656 273.063 28.7347M237.488 2.94086C237.488 2.94086 234.409 8.5055 231.645 11.4326C229.484 13.7221 227.942 14.6681 225.448 16.5891C219.724 20.9972 209.869 26.5661 209.869 26.5661C209.869 26.5661 207.047 28.2984 204.563 29.7347M120.979 34.7681C120.979 34.7681 126.463 37.9898 130.331 39.1025C133.357 39.9728 135.166 40.0021 138.291 40.3856C145.462 41.2657 156.779 41.0418 156.779 41.0418C156.779 41.0418 157.552 41.0409 161.063 41.0418M120.3 35.2443C120.3 35.2443 120.234 41.6039 119.193 45.4924C118.379 48.5339 117.472 50.0987 116.189 52.9743C113.247 59.5726 107.221 69.1549 107.221 69.1549C107.221 69.1549 106.066 70.8514 104.563 73.295M31.8247 123.125C31.8247 123.125 38.1846 123.154 42.0882 122.172C45.1415 121.403 46.7198 120.519 49.6142 119.28C56.2558 116.437 65.9273 110.555 65.9273 110.555C65.9273 110.555 66.0273 110.499 69.0635 108.735M31.4769 123.878C31.4769 123.878 34.6162 129.409 35.6708 133.294C36.4957 136.333 36.498 138.141 36.8347 141.272C37.6072 148.455 37.214 159.768 37.214 159.768C37.214 159.768 37.0684 161.815 36.9975 164.683M2.79504 238.212C2.79504 238.212 8.13768 234.761 10.8704 231.805C13.0078 229.494 13.8469 227.891 15.594 225.272C19.6032 219.262 24.4899 209.051 24.4899 209.051C24.4899 209.051 25.5563 206.598 27.1353 203.462M2.9152 239.032C2.9152 239.032 8.56655 241.95 11.5724 244.627C13.9234 246.722 14.9135 248.235 16.9059 250.673C21.4776 256.267 27.3292 265.957 27.3292 265.957C27.3292 265.957 27.556 266.294 29.0635 268.735M32.722 350.554C32.722 350.554 35.7262 344.948 36.6862 341.039C37.4372 337.981 37.3955 336.173 37.6562 333.035C38.2542 325.835 37.5866 314.535 37.5866 314.535C37.5866 314.535 37.3322 311.873 37.1953 308.364M33.2245 351.214C33.2245 351.214 39.5818 351.031 43.5081 351.918C46.5792 352.612 48.1784 353.457 51.102 354.626C57.8107 357.307 67.6221 362.953 67.6221 362.953C67.6221 362.953 72.0628 365.829 74.5635 367.235M138.373 399.61C138.373 399.61 138.609 393.254 137.755 389.321C137.086 386.244 136.254 384.638 135.11 381.704C132.485 374.974 126.922 365.115 126.922 365.115C126.922 365.115 121.285 355.924 119.176 349.423C117.874 345.414 116.83 343.116 116.77 338.901C116.71 334.723 118.836 328.402 118.836 328.402C118.836 328.402 121.497 322.606 123.802 319.26C125.838 316.304 127.382 314.465 129.563 312.336M139.114 399.982C139.114 399.982 144.745 397.025 148.662 396.097C151.726 395.372 153.534 395.429 156.673 395.194C163.878 394.657 175.172 395.419 175.172 395.419C175.172 395.419 185.897 396.534 192.671 395.63C196.849 395.073 199.373 395.023 203.2 393.258C206.995 391.508 211.778 386.861 211.778 386.861C211.778 386.861 215.858 381.958 217.881 378.435C219.322 375.924 220.247 374.016 221.063 371.857M232.563 425.469C230.063 429.484 225.063 434.002 225.063 434.002C225.063 434.002 216.05 440.37 209.56 442.984C202.859 445.684 198.425 445.021 191.574 447.313C188.588 448.312 186.821 448.702 184.03 450.158C180.461 452.019 174.919 456.091 174.919 456.091C174.919 456.091 173.587 449.872 171.791 446.269C170.387 443.451 169.186 442.099 167.356 439.537C163.157 433.658 155.342 425.469 155.342 425.469C147.437 416.324 144.576 410.442 141.563 399.235M330.455 399.777C330.663 404.503 329.095 411.056 329.095 411.056C329.095 411.056 325.262 421.405 321.388 427.232C317.388 433.248 313.357 435.209 309.002 440.974C307.105 443.486 305.868 444.806 304.389 447.586C302.498 451.139 300.231 457.631 300.231 457.631C300.231 457.631 295.615 453.256 292.097 451.3C289.345 449.77 287.59 449.333 284.632 448.255C277.844 445.781 266.767 443.447 266.767 443.447C255.077 440.375 249.391 437.142 240.568 429.603M396.564 334.735C398.907 338.843 399.793 344.229 399.793 344.229C399.793 344.229 401.109 355.186 400.323 362.139C399.512 369.318 396.821 372.903 395.579 380.02C395.038 383.122 394.54 384.861 394.494 388.009C394.435 392.034 395.382 398.845 395.382 398.845C395.382 398.845 389.277 397.061 385.254 396.927C382.107 396.822 380.346 397.235 377.222 397.627C370.054 398.525 359.134 401.507 359.134 401.507C350.416 403.431 344.573 403.01 337.564 401.85M425.063 239.235L429.877 243.238C429.877 243.238 436.877 251.77 439.951 258.056C443.126 264.546 442.783 269.016 445.562 275.685C446.772 278.591 447.288 280.325 448.941 283.005C451.054 286.431 455.514 291.665 455.514 291.665C455.514 291.665 449.407 293.441 445.942 295.491C443.232 297.094 441.969 298.389 439.545 300.398C433.983 305.009 426.377 313.393 426.377 313.393C417.824 321.934 414.526 323.924 403.563 327.735M400.911 144.455C405.636 144.66 412.028 146.795 412.028 146.795C412.028 146.795 422.002 151.517 427.469 155.885C433.113 160.395 434.714 164.582 440.077 169.424C442.414 171.533 443.621 172.881 446.26 174.597C449.635 176.791 455.904 179.616 455.904 179.616C455.904 179.616 451.143 183.832 448.887 187.166C447.122 189.774 446.534 191.484 445.202 194.337C442.144 200.883 438.852 211.713 438.852 211.713C434.771 223.091 435.063 222.235 427.563 231.235M333.563 72.7347C338.563 70.4295 340.5 70.4295 340.5 70.4295C340.5 70.4295 351.423 68.8593 358.393 69.4834C365.589 70.1279 369.236 72.7351 376.38 73.811C379.493 74.2799 381.243 74.7368 384.392 74.7101C388.417 74.676 395.204 73.5709 395.204 73.5709C395.204 73.5709 393.561 79.7151 393.521 83.7404C393.489 86.8887 393.944 88.6396 394.408 91.7537C395.472 98.8995 398.707 109.747 398.707 109.747C401.586 121.487 401.122 127.383 398.707 138.735M242.623 49.2061C245.093 45.172 250.058 40.6166 250.058 40.6166C250.058 40.6166 259.023 34.1805 265.493 31.5163C272.174 28.7657 276.612 29.3948 283.446 27.0507C286.424 26.0292 288.188 25.6265 290.968 24.1492C294.523 22.2605 300.033 18.1467 300.033 18.1467C300.033 18.1467 301.413 24.3552 303.235 27.9444C304.661 30.7517 305.872 32.0951 307.722 34.6433C311.965 40.4904 319.843 48.6193 319.843 48.6193C327.816 57.7038 330.465 62.0502 333.563 73.2347M147.063 73.7347C147.063 68.7347 147.875 66.5895 147.875 66.5895C147.875 66.5895 151.124 56.0429 154.667 50.0088C158.325 43.7787 162.241 41.5962 166.267 35.5972C168.022 32.9829 169.183 31.5959 170.504 28.7381C172.194 25.0844 174.095 18.4763 174.095 18.4763C174.095 18.4763 178.948 22.5871 182.57 24.344C185.403 25.7181 187.18 26.0559 190.193 26.9674C197.109 29.0589 208.298 30.7709 208.298 30.7709C220.142 33.1857 225.999 36.0964 235.229 43.1319M72.9449 139.235C70.558 135.151 69.1133 130.178 69.1133 130.178C69.1133 130.178 67.6811 119.235 68.3931 112.274C69.1283 105.087 71.7814 101.474 72.9474 94.3437C73.4555 91.2365 73.9345 89.4922 73.9476 86.3438C73.9643 82.3184 72.9449 75.518 72.9449 75.518C72.9449 75.518 79.0679 77.2378 83.0923 77.329C86.24 77.4004 87.9965 76.9683 91.1162 76.5437C98.2749 75.5694 109.163 72.4719 109.163 72.4719C120.938 69.7416 127.475 69.9522 138.795 72.511M50.7208 235.401C46.4749 233.317 41.4781 228.796 41.4781 228.796C41.4781 228.796 34.2374 220.468 30.9839 214.273C27.6248 207.876 27.8391 203.398 24.8706 196.812C23.577 193.941 23.0122 192.223 21.2832 189.592C19.0726 186.228 14.4649 181.123 14.4649 181.123C14.4649 181.123 20.5184 179.173 23.9229 177.025C26.5857 175.345 27.8108 174.014 30.1763 171.936C35.6041 167.168 42.9664 158.57 42.9664 158.57C51.2712 149.787 55.715 147.358 66.5635 143.235M67.0635 325.235C62.3401 324.986 58.8467 323.304 58.8467 323.304C58.8467 323.304 48.9164 318.49 43.4908 314.071C37.889 309.508 36.327 305.306 31.0096 300.415C28.6923 298.284 27.4979 296.926 24.8741 295.185C21.5197 292.96 15.2773 290.076 15.2773 290.076C15.2773 290.076 20.0779 285.904 22.3648 282.592C24.1535 280.001 24.7574 278.296 26.1163 275.455C29.2346 268.938 32.6272 258.139 32.6272 258.139C36.814 246.8 40.7069 243.788 49.0634 235.735M73.3197 331.735C70.561 343.008 70.7983 348.618 73.3197 360.44C73.3197 360.44 76.224 371.38 77.0714 378.555C77.4408 381.682 77.8416 383.446 77.7145 386.592C77.5521 390.614 75.7242 396.706 75.7242 396.706C75.7242 396.706 82.5415 395.807 86.566 395.895C89.7137 395.963 91.4493 396.473 94.547 397.036C101.655 398.328 105.221 401.045 112.394 401.907C119.342 402.742 130.308 401.504 130.308 401.504C130.308 401.504 134.705 400.465 138.563 398.817M336.98 402.859C336.98 402.859 331.373 399.857 327.463 398.899C324.405 398.149 322.597 398.192 319.459 397.933C312.259 397.338 300.959 398.011 300.959 398.011C300.959 398.011 290.226 399.042 283.459 398.085C279.286 397.494 276.763 397.424 272.949 395.629C269.168 393.849 264.422 389.165 264.422 389.165C264.422 389.165 260.381 384.23 258.386 380.69C256.623 377.563 255.648 375.369 254.693 372.475M337.64 402.356C337.64 402.356 337.453 395.999 338.339 392.072C339.032 389.001 339.876 387.401 341.043 384.477C343.722 377.767 349.363 367.953 349.363 367.953C349.363 367.953 355.071 358.806 357.232 352.322C358.565 348.323 359.628 346.034 359.721 341.82C359.814 337.642 357.738 331.304 357.738 331.304C357.738 331.304 355.123 325.487 352.844 322.123L352.792 322.046C351.166 319.645 348.628 315.898 347.063 314.235M431.304 235.069C431.304 235.069 425.646 237.974 422.634 240.645C420.279 242.734 419.285 244.245 417.287 246.679C412.703 252.262 406.829 261.939 406.829 261.939C406.829 261.939 401.572 271.353 396.937 276.375C394.077 279.472 392.585 281.507 388.939 283.623C385.324 285.72 378.772 286.96 378.772 286.96C378.772 286.96 372.415 287.476 368.369 287.104C364.794 286.775 362.435 286.329 359.512 285.469M431.266 234.241C431.266 234.241 425.931 230.778 423.205 227.816C421.073 225.5 420.238 223.895 418.496 221.272C414.501 215.253 409.637 205.031 409.637 205.031C409.637 205.031 405.361 195.133 401.257 189.668C398.726 186.297 397.447 184.121 394.035 181.648C390.651 179.195 384.258 177.298 384.258 177.298C384.258 177.298 377.986 176.14 373.923 176.101C371.027 176.073 368.911 176.201 366.629 176.546M333.07 68.2313C333.07 68.2313 333.206 74.5898 334.289 78.4668C335.136 81.4992 336.06 83.0541 337.373 85.9156C340.387 92.4816 346.517 101.998 346.517 101.998C346.517 101.998 352.681 110.845 355.167 117.211C356.7 121.137 357.877 123.37 358.183 127.574C358.487 131.742 356.734 138.176 356.734 138.176C356.734 138.176 354.416 144.118 352.31 147.593C350.45 150.663 349.016 152.589 346.963 154.841M332.309 67.9031C332.309 67.9031 326.86 71.1842 323.004 72.3388C319.988 73.2418 318.18 73.2908 315.059 73.7082C307.898 74.6661 296.579 74.5651 296.579 74.5651C296.579 74.5651 285.808 74.078 279.098 75.3756C274.959 76.1759 272.443 76.3735 268.725 78.3592C265.039 80.3279 260.535 85.246 260.535 85.246C260.535 85.246 256.749 90.3788 254.935 94.0147C253.643 96.6056 252.831 98.5644 252.142 100.767M141.335 70.5128C141.335 70.5128 146.752 73.8443 150.598 75.0347C153.606 75.9657 155.413 76.0314 158.53 76.4778C165.682 77.5021 177.001 77.5061 177.001 77.5061C177.001 77.5061 187.777 77.119 194.474 78.4788C198.605 79.3175 201.12 79.5384 204.819 81.5586C208.487 83.5614 212.945 88.521 212.945 88.521C212.945 88.521 216.683 93.6888 218.463 97.3414C220.035 100.568 220.877 102.817 221.657 105.763M140.646 70.9752C140.646 70.9752 140.452 77.3322 139.333 81.199C138.458 84.2234 137.52 85.7697 136.18 88.6189C133.105 95.1566 126.887 104.616 126.887 104.616C126.887 104.616 120.642 113.405 118.097 119.748C116.527 123.66 115.33 125.882 114.984 130.083C114.642 134.248 116.335 140.698 116.335 140.698C116.335 140.698 118.598 146.661 120.671 150.155C122.149 152.645 123.355 154.389 124.834 156.161M46.8093 240.792C46.8093 240.792 52.0097 237.131 54.622 234.068C56.6653 231.673 57.4396 230.038 59.0806 227.351C62.8462 221.185 67.3207 210.788 67.3207 210.788C67.3207 210.788 71.2209 200.735 75.1154 195.119C77.5174 191.656 78.7135 189.433 82.0305 186.832C85.319 184.254 91.6362 182.117 91.6362 182.117C91.6362 182.117 97.8603 180.723 101.919 180.531C105.504 180.361 107.902 180.476 110.917 180.922M46.9622 241.608C46.9622 241.608 52.7257 244.297 55.8362 246.852C58.269 248.85 59.3189 250.323 61.4072 252.68C66.199 258.087 72.4333 267.535 72.4333 267.535C72.4333 267.535 78.0415 276.744 82.8634 281.587C85.8374 284.574 87.4059 286.552 91.1289 288.528C94.8198 290.488 101.414 291.48 101.414 291.48C101.414 291.48 107.787 291.756 111.816 291.231C114.687 290.858 116.765 290.437 118.977 289.78M65.854 330.386C65.854 330.386 68.9496 324.83 69.9736 320.937C70.7746 317.892 70.7626 316.083 71.0746 312.95C71.7906 305.761 71.3083 294.452 71.3083 294.452C71.3083 294.452 70.4585 283.703 71.5293 276.953C72.0828 273.464 71.9282 272.127 73.0634 269.235M66.3456 331.054C66.3456 331.054 72.705 330.975 76.6163 331.926C79.6756 332.671 81.2608 333.542 84.1648 334.758C90.8286 337.549 100.546 343.355 100.546 343.355C100.546 343.355 109.596 349.217 116.042 351.487C117.772 352.096 119.179 352.649 120.563 353.092M65.8911 139.729C65.8911 139.729 72.2504 139.641 76.1354 138.587C79.174 137.762 80.7358 136.85 83.6069 135.558C90.195 132.592 99.7567 126.534 99.7567 126.534C99.7567 126.534 108.649 120.436 115.034 117.997C118.334 116.737 119.563 116.235 119.563 116.235M65.5572 140.488C65.5572 140.488 68.7978 145.961 69.9237 149.826C70.8044 152.848 70.8399 154.657 71.2342 157.781C72.1388 164.949 71.9538 176.267 71.9538 176.267C71.9538 176.267 72.3158 189.515 73.5635 196.235M237.029 41.7168C237.029 41.7168 240.224 47.216 243.048 50.0848C245.256 52.3287 246.817 53.2423 249.352 55.1108C255.166 59.3985 265.136 64.7605 265.136 64.7605C265.136 64.7605 274.81 69.5203 280.066 73.8886M236.203 41.7982C236.203 41.7982 233.023 47.306 230.207 50.1824C228.004 52.4322 226.446 53.35 223.917 55.2254C218.113 59.5287 208.159 64.9175 208.159 64.9175C208.159 64.9175 198.497 69.7034 193.253 74.0857C191.845 75.2616 190.652 76.1891 189.563 77.1531M402.408 139.706C402.408 139.706 399.032 145.096 397.811 148.932C396.855 151.932 396.775 153.739 396.303 156.852C395.221 163.995 395.125 175.314 395.125 175.314C395.125 175.314 395.285 178.136 395.125 182.235M401.951 139.013C401.951 139.013 395.596 138.768 391.738 137.617C388.721 136.718 387.182 135.767 384.344 134.403C377.832 131.276 368.423 124.981 368.423 124.981C368.423 124.981 361.385 119.331 355.063 116.735M405.191 332.991C405.191 332.991 398.84 333.328 395 334.535C391.996 335.478 390.471 336.451 387.653 337.855C381.187 341.077 371.871 347.507 371.871 347.507C371.871 347.507 363.225 353.95 356.941 356.638M405.495 332.219C405.495 332.219 402.042 326.878 400.765 323.06C399.766 320.075 399.66 318.269 399.143 315.163C397.957 308.036 397.697 296.72 397.697 296.72C397.697 296.72 397.84 285.938 396.329 279.273M236.573 430.377C236.573 430.377 233.56 424.776 230.832 421.816C228.698 419.501 227.168 418.536 224.697 416.586C219.026 412.109 209.238 406.423 209.238 406.423C209.238 406.423 199.724 401.349 194.614 396.81M237.401 430.322C237.401 430.322 240.76 424.922 243.669 422.14C245.944 419.963 247.532 419.097 250.122 417.306C256.063 413.195 266.189 408.136 266.189 408.136C266.189 408.136 276.003 403.669 281.388 399.462M266.899 310.231C266.899 310.231 270.715 315.92 273.711 319.096C276.896 322.473 278.88 324.249 282.746 326.818C286.13 329.066 291.971 331.63 291.971 331.63C291.971 331.63 298.326 333.65 302.503 333.52C306.716 333.389 308.996 332.306 312.983 330.938C319.447 328.719 328.543 322.93 328.543 322.93C328.543 322.93 338.307 317.202 344.993 314.464C347.906 313.271 349.499 312.413 352.564 311.693C356.482 310.772 362.841 310.902 362.841 310.902M318.306 225.362C318.306 225.362 325.114 226.12 329.315 227.311C333.78 228.577 336.273 229.517 340.336 231.76C343.893 233.724 348.864 237.72 348.864 237.72C348.864 237.72 353.59 242.425 355.403 246.19C357.232 249.988 357.325 252.51 357.952 256.678C358.969 263.437 358.033 274.178 358.033 274.178C358.033 274.178 357.461 285.483 358.119 292.678C358.406 295.813 358.38 297.622 359.157 300.673C360.149 304.574 363.201 310.155 363.201 310.155M288.723 171.432C288.723 171.432 290.306 166.091 291.48 161.886C292.728 157.415 293.226 154.799 293.43 150.162C293.61 146.103 292.791 139.777 292.791 139.777C292.791 139.777 291.241 133.291 288.974 129.781C286.687 126.24 284.583 124.846 281.353 122.137C276.117 117.746 266.463 112.943 266.463 112.943C266.463 112.943 256.518 107.537 250.722 103.223C248.196 101.344 246.639 100.423 244.44 98.1693C241.629 95.288 238.459 89.7747 238.459 89.7747M186.872 171.054C186.872 171.054 185.315 165.847 184.167 161.634C182.946 157.156 182.465 154.537 182.289 149.899C182.135 145.838 182.992 139.518 182.992 139.518C182.992 139.518 184.583 133.042 186.872 129.545C189.18 126.019 191.293 124.638 194.539 121.949C199.803 117.59 209.486 112.847 209.486 112.847C209.486 112.847 219.464 107.502 225.287 103.225C227.824 101.361 229.387 100.45 231.599 98.2099C234.428 95.346 237.633 89.8525 237.633 89.8525M236.897 387.221C236.897 387.221 233.759 381.689 230.966 378.791C228.781 376.524 227.229 375.594 224.715 373.699C218.945 369.351 209.033 363.885 209.033 363.885C209.033 363.885 199.408 359.024 194.198 354.601C190.985 351.873 188.889 350.466 186.624 346.911C184.378 343.387 182.867 336.892 182.867 336.892C182.867 336.892 182.676 335.347 182.508 333.293M237.723 387.149C237.723 387.149 240.961 381.675 243.807 378.828C246.033 376.601 247.601 375.7 250.149 373.851C255.997 369.609 266.008 364.324 266.008 364.324C266.008 364.324 275.72 359.64 281.009 355.313C284.272 352.644 286.393 351.275 288.723 347.763C291.032 344.28 291.864 341.916 292.662 337.814C293.005 336.047 292.954 335.756 293.18 333.235M106.799 161.061C106.799 161.061 113.156 161.271 117.086 160.401C120.16 159.72 121.763 158.882 124.692 157.726C131.412 155.073 141.247 149.47 141.247 149.47C141.247 149.47 150.417 143.797 156.908 141.661C160.912 140.344 163.206 139.29 167.421 139.213C171.599 139.136 177.928 141.237 177.928 141.237C177.928 141.237 179.346 141.881 181.185 142.809M106.43 161.803C106.43 161.803 109.41 167.422 110.353 171.335C111.091 174.396 111.042 176.204 111.289 179.343C111.856 186.546 111.139 197.843 111.139 197.843C111.139 197.843 110.067 208.572 110.998 215.342C111.572 219.518 111.632 222.041 113.413 225.862C115.178 229.65 119.844 234.414 119.844 234.414C119.844 234.414 122.199 236.358 124.82 238.221M369.636 164.716C369.636 164.716 366.407 170.195 365.289 174.062C364.415 177.087 364.383 178.896 363.995 182.02C363.106 189.19 363.315 200.508 363.315 200.508C363.315 200.508 363.904 211.274 362.671 217.996C361.91 222.142 361.736 224.66 359.786 228.397C357.853 232.101 352.978 236.652 352.978 236.652C352.978 236.652 351.733 237.588 350.038 238.758M369.161 164.036C369.161 164.036 362.801 163.962 358.914 162.916C355.874 162.098 354.31 161.188 351.436 159.902C344.842 156.951 335.267 150.912 335.267 150.912C335.267 150.912 326.362 144.833 319.973 142.408C316.032 140.912 313.788 139.757 309.581 139.49C305.411 139.226 298.993 141.041 298.993 141.041C298.993 141.041 296.159 142.178 293.268 143.587M318.563 234.235C318.563 278.97 282.299 315.235 237.563 315.235C192.828 315.235 156.563 278.97 156.563 234.235C156.563 189.5 192.828 153.235 237.563 153.235C282.299 153.235 318.563 189.5 318.563 234.235Z" stroke="#282828" stroke-width="4" stroke-linecap="round" stroke-linejoin="round"/>
</svg>
