<svg width="471" height="467" viewBox="0 0 471 467" fill="none" xmlns="http://www.w3.org/2000/svg">
<path d="M186.581 404.499C186.581 411.08 184.442 419.811 186.581 425.999C187.822 429.591 190.824 431.636 193.581 433.999C193.581 433.999 200.644 438.925 204.581 440.499L213.081 444.999C213.081 444.999 217.856 447.44 220.581 449.499C222.897 451.249 226.081 454.499 226.081 454.499L229.081 457.999L231.581 461.499L234.081 464.499L239.081 457.499L242.081 453.999C242.081 453.999 245.265 450.749 247.581 448.999C250.306 446.94 255.081 444.499 255.081 444.499L263.581 439.999C267.518 438.425 274.581 433.499 274.581 433.499C277.338 431.136 280.339 429.091 281.581 425.499C283.72 419.311 281.581 413.499 280.581 405.999M279.581 406.976C283.105 412.534 286.46 422.443 291.581 426.524C294.553 428.892 296.975 430.526 300.57 431.045C300.57 431.045 309.173 431.422 313.34 430.643L322.929 429.891C322.929 429.891 328.268 429.395 331.672 429.675C334.565 429.913 338.995 430.952 338.995 430.952L343.403 432.301L347.388 433.918L351.106 435.113L351.58 426.524L352.239 421.961C352.239 421.961 353.188 417.511 354.206 414.793C355.405 411.595 358.13 406.976 358.13 406.976L362.898 398.624C365.38 395.186 368.707 387.244 368.707 387.244C369.77 383.771 371.209 380.437 370.334 376.739C368.827 370.367 364.105 366.557 360.581 360.999M360.581 361.357C366.16 364.848 373.431 372.275 379.811 373.744C383.515 374.597 386.84 373.137 390.306 372.053C390.306 372.053 398.228 368.678 401.651 366.176L409.975 361.357C409.975 361.357 414.576 358.604 417.768 357.386C420.48 356.351 424.924 355.376 424.924 355.376L429.482 354.689L433.775 354.426L437.644 353.898L434.362 345.946L432.987 341.547C432.987 341.547 431.92 337.124 431.665 334.232C431.365 330.83 431.829 325.487 431.829 325.487L432.522 315.894C433.276 311.722 432.847 303.122 432.847 303.122C432.306 299.531 432.164 295.902 429.778 292.944C425.666 287.848 413.66 285.99 408.081 282.499M407.581 282.798C414.081 283.999 424.612 285.077 430.75 282.798C434.313 281.475 436.289 278.429 438.589 275.618C438.589 275.618 443.353 268.445 444.838 264.474L449.145 255.874C449.145 255.874 451.476 251.045 453.473 248.274C455.171 245.919 458.347 242.662 458.347 242.662L461.779 239.584L465.221 237.005L468.164 234.438L461.052 229.598L457.485 226.678C457.485 226.678 454.164 223.568 452.362 221.292C450.241 218.615 447.693 213.896 447.693 213.896L443.001 205.5C441.338 201.601 436.254 194.651 436.254 194.651C433.828 191.948 431.716 188.994 428.097 187.834C421.862 185.835 415.182 188.126 408.602 188.276M407.995 190.064C413.758 186.887 422.437 184.546 426.823 179.685C429.369 176.864 429.711 173.248 430.45 169.692C430.45 169.692 431.353 161.129 430.832 156.921L430.669 147.305C430.669 147.305 430.501 141.945 430.989 138.564C431.404 135.691 432.713 131.334 432.713 131.334L434.33 127.017L436.188 123.138L437.608 119.5L429.064 118.501L424.55 117.563C424.55 117.563 420.167 116.344 417.517 115.16C414.397 113.768 409.955 110.765 409.955 110.765L401.91 105.493C398.631 102.806 390.908 98.9983 390.908 98.9983C387.507 97.7246 384.267 96.0836 380.522 96.7302C374.07 97.8444 367.844 104.322 362.081 107.499M362.581 107.999C365.899 102.316 373.509 95.05 374.782 88.6271C375.521 84.8995 373.961 81.6202 372.771 78.189C372.771 78.189 369.155 70.3741 366.549 67.0294L361.478 58.8574C361.478 58.8574 358.585 54.3421 357.27 51.1897C356.153 48.5106 355.041 44.0986 355.041 44.0986L354.215 39.5634L353.821 35.2803L353.175 31.4291L345.328 34.953L340.972 36.4628C340.972 36.4628 336.584 37.6638 333.701 38.0075C330.31 38.4119 324.956 38.112 324.956 38.112L315.346 37.7122C311.153 37.0871 302.569 37.779 302.569 37.779C298.997 38.4297 295.374 38.6825 292.491 41.1581C287.523 45.4237 284.399 55.3159 281.081 60.9992M281.081 62.4997C282.119 55.9997 284.233 47.09 282.119 40.8928C280.892 37.2961 277.899 35.2388 275.152 32.8642C275.152 32.8642 268.109 27.9099 264.179 26.3191L255.697 21.7843C255.697 21.7843 250.932 19.3241 248.216 17.2536C245.907 15.494 242.736 12.2311 242.736 12.2311L239.751 8.71881L237.265 5.20859L234.777 2.19836L229.749 9.17781L226.734 12.6655C226.734 12.6655 223.537 15.9023 221.214 17.6429C218.48 19.6911 213.695 22.1121 213.695 22.1121L205.177 26.5772C201.234 28.1357 194.15 33.0321 194.15 33.0321C191.384 35.3841 188.374 37.4168 187.118 41.0033C184.953 47.183 187.118 55.9992 189.081 62.4992M189.181 60.9879C185.933 55.2641 183.485 46.6153 178.57 42.2886C175.718 39.7776 172.098 39.4801 168.534 38.7854C168.534 38.7854 159.96 37.9876 155.759 38.5609L146.145 38.842C146.145 38.842 140.788 39.0758 137.401 38.6296C134.523 38.2503 130.15 36.9952 130.15 36.9952L125.814 35.4317L121.912 33.6215L118.257 32.2461L117.363 40.8018L116.481 45.3264C116.481 45.3264 115.316 49.7244 114.165 52.3895C112.812 55.5255 109.863 60.0047 109.863 60.0047L104.691 68.1134C102.045 71.4257 98.332 79.1954 98.332 79.1954C97.1003 82.6116 95.4993 85.8714 96.192 89.6079C97.3856 96.046 104.691 102.999 109.081 107.999M108.862 107.654C103.285 104.16 97.0214 97.7133 90.6411 96.2413C86.9383 95.387 83.612 96.845 80.1455 97.9272C80.1455 97.9272 72.222 101.299 68.7979 103.799L60.4723 108.614C60.4723 108.614 55.8693 111.366 52.6775 112.582C49.965 113.616 45.5206 114.589 45.5206 114.589L40.9619 115.274L36.6687 115.535L32.7992 116.061L36.0776 124.014L37.4513 128.414C37.4513 128.414 38.5154 132.838 38.7693 135.729C39.0681 139.132 38.6019 144.474 38.6019 144.474L37.9037 154.067C37.1486 158.239 37.5735 166.839 37.5735 166.839C38.1128 170.431 38.2529 174.06 40.6377 177.018C44.7469 182.116 57.5809 186.999 63.5809 188.999M64.5809 188.499C58.0809 186.999 48.5051 184.195 42.2779 186.219C38.6639 187.394 36.5635 190.357 34.1494 193.07C34.1494 193.07 29.0938 200.041 27.4464 203.947L22.7895 212.362C22.7895 212.362 20.2607 217.091 18.1511 219.778C16.3583 222.061 13.0499 225.184 13.0499 225.184L9.49485 228.118L5.94907 230.553L2.9032 232.997L9.80922 238.126L13.253 241.19C13.253 241.19 16.4432 244.434 18.15 246.782C20.1585 249.545 22.5101 254.364 22.5101 254.364L26.8516 262.946C28.3529 266.912 33.1464 274.065 33.1464 274.065C35.4582 276.866 37.4472 279.904 41.0151 281.212C47.1629 283.466 58.0809 282.499 64.5809 281.212M63.5809 280.499C57.0809 281.999 48.7381 283.495 44.1977 288.427C41.5626 291.289 41.1676 294.939 40.3684 298.531C40.3684 298.531 39.3376 307.177 39.8167 311.419L39.861 321.12C39.861 321.12 39.9644 326.526 39.4234 329.94C38.9636 332.841 37.5721 337.246 37.5721 337.246L35.8667 341.611L33.9204 345.537L32.4242 349.216L41.1348 350.17L45.731 351.088C45.731 351.088 50.1907 352.29 52.882 353.467C56.0488 354.852 60.5464 357.855 60.5464 357.855L68.6927 363.122C72.0069 365.813 79.8439 369.606 79.8439 369.606C83.2999 370.87 86.5869 372.505 90.4183 371.829C97.02 370.664 103.581 364.499 109.081 358.999M108.63 357.499C103.59 362.999 96.7355 370.589 95.4383 377.007C94.6854 380.732 96.2336 384.017 97.41 387.453C97.41 387.453 100.997 395.282 103.59 398.636L108.63 406.827C108.63 406.827 111.506 411.354 112.809 414.511C113.916 417.194 115.011 421.61 115.011 421.61L115.819 426.149L116.197 430.433L116.829 434.287L124.69 430.793L129.051 429.299C129.051 429.299 133.444 428.115 136.328 427.782C139.721 427.391 145.074 427.711 145.074 427.711L154.681 428.147C158.873 428.788 167.458 428.128 167.458 428.128C171.034 427.491 174.657 427.252 177.55 424.788C182.534 420.541 185.081 412.499 187.081 405.499M415.081 234C415.081 332.859 334.94 413 236.081 413C137.222 413 57.0809 332.859 57.0809 234C57.0809 135.141 137.222 54.9997 236.081 54.9997C334.94 54.9997 415.081 135.141 415.081 234ZM236.581 56.9997L391.081 324H82.0809L236.581 56.9997ZM81.6994 145.158L388.956 144.706L235.719 411.024L81.6994 145.158Z" stroke="#282828" stroke-width="4" stroke-linejoin="round"/>
</svg>
