<svg width="469" height="291" viewBox="0 0 469 291" fill="none" xmlns="http://www.w3.org/2000/svg">
<path d="M326.051 271.495L325.525 273.425L325.525 273.425L326.051 271.495ZM360.16 274L359.694 272.055L359.694 272.055L360.16 274ZM377.214 264.982L378.411 266.585L378.525 266.5L378.626 266.399L377.214 264.982ZM391.76 248.951L393.343 250.174L393.343 250.174L391.76 248.951ZM403.297 231.417L401.552 230.44L401.552 230.44L403.297 231.417ZM411.824 213.382L410.046 212.467C410.022 212.513 410 212.559 409.981 212.606L411.824 213.382ZM421.355 194.845L419.636 193.822C419.615 193.858 419.595 193.894 419.576 193.931L421.355 194.845ZM432.39 176.309L430.671 175.286L430.671 175.286L432.39 176.309ZM442.923 163.284L441.517 161.861L441.517 161.861L442.923 163.284ZM453.958 154.266L452.865 152.592C452.839 152.608 452.814 152.626 452.788 152.644L453.958 154.266ZM467 145.75L468.094 147.424C468.649 147.061 468.988 146.447 469 145.784C469.011 145.12 468.693 144.495 468.15 144.113L467 145.75ZM453.958 136.231L455.182 134.649L455.182 134.649L453.958 136.231ZM439.412 124.207L440.935 122.911L440.935 122.911L439.412 124.207ZM429.5 111L427.78 112.021C427.808 112.068 427.838 112.114 427.869 112.158L429.5 111ZM423.361 100.661L421.601 101.611C421.614 101.635 421.627 101.659 421.641 101.683L423.361 100.661ZM416.339 87.636L414.546 88.5236C414.557 88.5443 414.567 88.5648 414.578 88.5851L416.339 87.636ZM409.316 73.6086L407.534 74.5159L407.534 74.5159L409.316 73.6086ZM401.792 59.0802L403.525 58.0817L403.525 58.0817L401.792 59.0802ZM391.76 43.5499L393.365 42.3563L393.365 42.3563L391.76 43.5499ZM381.728 31.5264L383.082 30.0539L383.082 30.0539L381.728 31.5264ZM370.693 23.5108L371.649 21.7538L371.649 21.7538L370.693 23.5108ZM355.144 18L354.82 19.9737L354.82 19.9737L355.144 18ZM340.096 18L340.301 19.9894L340.096 18ZM329.061 20.0039L329.492 21.9569L329.492 21.9569L329.061 20.0039ZM313.753 25.7332C312.777 26.2508 312.405 27.4614 312.923 28.4372C313.441 29.413 314.651 29.7844 315.627 29.2668L313.753 25.7332ZM142.949 272.085L143.475 274.014L143.475 274.014L142.949 272.085ZM108.84 274.59L109.306 272.645L109.306 272.645L108.84 274.59ZM91.7859 265.572L90.3741 266.989L90.4751 267.089L90.5893 267.175L91.7859 265.572ZM77.2396 249.541L75.6574 250.764L75.6574 250.764L77.2396 249.541ZM65.7029 232.007L67.4483 231.03L67.4483 231.03L65.7029 232.007ZM57.1757 213.971L59.0194 213.196C58.9995 213.149 58.9778 213.103 58.9544 213.057L57.1757 213.971ZM47.6454 195.435L49.424 194.521C49.4051 194.484 49.3851 194.448 49.3639 194.412L47.6454 195.435ZM36.6102 176.899L38.3287 175.876L38.3287 175.876L36.6102 176.899ZM26.0767 163.874L27.4827 162.451L27.4827 162.451L26.0767 163.874ZM15.0415 154.856L16.2116 153.234C16.1865 153.216 16.161 153.198 16.1351 153.181L15.0415 154.856ZM2 146.339L0.849839 144.703C0.307178 145.085 -0.0110479 145.71 0.000292297 146.374C0.0116325 147.037 0.351063 147.651 0.906448 148.014L2 146.339ZM15.0415 136.821L13.818 135.239L13.818 135.239L15.0415 136.821ZM29.5879 124.797L28.0651 123.501L28.0651 123.501L29.5879 124.797ZM39.5 111.59L41.1305 112.748C41.1621 112.704 41.1918 112.658 41.2197 112.611L39.5 111.59ZM45.639 101.251L47.3586 102.272C47.3727 102.249 47.3863 102.225 47.3994 102.2L45.639 101.251ZM52.6613 88.2259L54.4218 89.175C54.4327 89.1547 54.4433 89.1342 54.4536 89.1135L52.6613 88.2259ZM59.6837 74.1985L61.4661 75.1058L61.4661 75.1058L59.6837 74.1985ZM67.2077 59.6701L65.4748 58.6715L65.4748 58.6715L67.2077 59.6701ZM77.2396 44.1398L75.6348 42.9462L75.6348 42.9462L77.2396 44.1398ZM87.2716 32.1163L85.9182 30.6437L85.9182 30.6437L87.2716 32.1163ZM98.3067 24.1006L97.3511 22.3437L97.3511 22.3437L98.3067 24.1006ZM113.856 18.5899L114.18 20.5635L114.18 20.5635L113.856 18.5899ZM128.904 18.5899L128.699 20.5793L128.904 18.5899ZM139.939 20.5938L139.508 22.5467L139.508 22.5467L139.939 20.5938ZM156.177 28.0056C157.153 28.5232 158.363 28.1518 158.881 27.176C159.399 26.2002 159.027 24.9896 158.051 24.472L156.177 28.0056ZM111.95 77V75C111.235 75 110.574 75.3821 110.217 76.002C109.86 76.6219 109.861 77.3853 110.22 78.004L111.95 77ZM358.05 77L359.78 78.004C360.139 77.3853 360.14 76.6219 359.783 76.002C359.426 75.3821 358.765 75 358.05 75V77ZM311.693 265.572C310.758 267.34 310.758 267.34 310.758 267.34C310.759 267.34 310.759 267.341 310.759 267.341C310.759 267.341 310.76 267.341 310.761 267.342C310.762 267.342 310.764 267.343 310.766 267.344C310.771 267.347 310.777 267.35 310.785 267.355C310.802 267.363 310.826 267.376 310.857 267.392C310.919 267.425 311.01 267.472 311.127 267.532C311.361 267.653 311.701 267.825 312.128 268.038C312.981 268.462 314.186 269.046 315.599 269.687C318.406 270.96 322.108 272.492 325.525 273.425L326.578 269.566C323.468 268.717 319.991 267.287 317.251 266.044C315.89 265.427 314.729 264.864 313.91 264.457C313.5 264.253 313.177 264.088 312.957 263.975C312.847 263.919 312.764 263.875 312.708 263.846C312.68 263.832 312.659 263.821 312.646 263.814C312.639 263.81 312.634 263.808 312.631 263.806C312.63 263.805 312.629 263.805 312.628 263.804C312.628 263.804 312.628 263.804 312.628 263.804C312.628 263.804 312.628 263.804 312.628 263.804C312.628 263.804 312.628 263.804 311.693 265.572ZM360.625 275.945C364.61 274.991 369.097 272.595 372.473 270.542C374.188 269.5 375.666 268.515 376.716 267.791C377.241 267.428 377.661 267.13 377.951 266.92C378.096 266.816 378.209 266.733 378.287 266.676C378.325 266.648 378.355 266.626 378.376 266.611C378.387 266.603 378.395 266.597 378.4 266.593C378.403 266.59 378.406 266.589 378.407 266.587C378.408 266.587 378.409 266.586 378.409 266.586C378.41 266.586 378.41 266.585 378.41 266.585C378.41 266.585 378.411 266.585 377.214 264.982C376.017 263.38 376.018 263.38 376.018 263.38C376.018 263.38 376.018 263.38 376.018 263.38C376.018 263.38 376.018 263.38 376.017 263.38C376.017 263.381 376.015 263.381 376.013 263.383C376.01 263.386 376.004 263.39 375.996 263.396C375.979 263.408 375.954 263.427 375.919 263.452C375.851 263.503 375.747 263.578 375.612 263.675C375.342 263.87 374.945 264.153 374.444 264.499C373.441 265.191 372.029 266.131 370.396 267.124C367.077 269.142 363.036 271.255 359.694 272.055L360.625 275.945ZM377.214 264.982C378.626 266.399 378.626 266.399 378.626 266.399C378.626 266.399 378.626 266.399 378.627 266.398C378.627 266.398 378.627 266.397 378.628 266.397C378.629 266.396 378.631 266.394 378.634 266.391C378.638 266.386 378.646 266.379 378.655 266.37C378.673 266.352 378.701 266.324 378.736 266.289C378.807 266.217 378.912 266.112 379.047 265.976C379.316 265.705 379.706 265.311 380.189 264.817C381.155 263.83 382.498 262.444 384.003 260.847C387.002 257.666 390.694 253.599 393.343 250.174L390.178 247.728C387.655 250.99 384.075 254.94 381.093 258.103C379.608 259.678 378.284 261.045 377.33 262.019C376.854 262.506 376.471 262.894 376.207 263.159C376.075 263.292 375.974 263.394 375.905 263.463C375.871 263.497 375.845 263.523 375.827 263.541C375.819 263.549 375.812 263.556 375.808 263.56C375.806 263.562 375.804 263.564 375.803 263.565C375.803 263.565 375.803 263.565 375.802 263.566C375.802 263.566 375.802 263.566 375.802 263.566C375.802 263.566 375.802 263.566 377.214 264.982ZM393.343 250.174C398.423 243.605 400.997 239.625 405.043 232.393L401.552 230.44C397.594 237.516 395.126 241.329 390.178 247.728L393.343 250.174ZM405.043 232.393C406.988 228.916 409.148 224.343 410.809 220.674C411.643 218.833 412.356 217.206 412.862 216.038C413.115 215.455 413.316 214.986 413.454 214.662C413.523 214.5 413.576 214.374 413.612 214.289C413.63 214.246 413.644 214.213 413.653 214.191C413.658 214.18 413.662 214.172 413.664 214.166C413.665 214.163 413.666 214.161 413.667 214.159C413.667 214.159 413.667 214.158 413.668 214.157C413.668 214.157 413.668 214.157 413.668 214.157C413.668 214.157 413.668 214.157 411.824 213.382C409.981 212.606 409.981 212.606 409.981 212.606C409.981 212.607 409.981 212.607 409.98 212.607C409.98 212.607 409.98 212.607 409.98 212.608C409.979 212.609 409.979 212.611 409.978 212.614C409.975 212.619 409.972 212.626 409.968 212.637C409.959 212.658 409.946 212.689 409.928 212.73C409.894 212.812 409.842 212.935 409.774 213.094C409.639 213.411 409.441 213.873 409.192 214.449C408.693 215.601 407.988 217.207 407.165 219.025C405.513 222.674 403.41 227.119 401.552 230.44L405.043 232.393ZM413.603 214.296L423.133 195.76L419.576 193.931L410.046 212.467L413.603 214.296ZM423.073 195.868L434.108 177.332L430.671 175.286L419.636 193.822L423.073 195.868ZM434.108 177.332C436.234 173.761 437.639 171.76 439.051 170.103C440.491 168.413 441.948 167.061 444.329 164.706L441.517 161.861C439.247 164.106 437.592 165.647 436.005 167.51C434.39 169.406 432.855 171.618 430.671 175.286L434.108 177.332ZM444.329 164.706C446.221 162.837 448.902 160.641 451.155 158.885C452.273 158.014 453.269 157.262 453.985 156.729C454.343 156.463 454.63 156.252 454.828 156.107C454.926 156.035 455.002 155.98 455.053 155.943C455.079 155.924 455.098 155.91 455.111 155.901C455.117 155.897 455.122 155.893 455.125 155.891C455.126 155.89 455.127 155.889 455.128 155.889C455.128 155.888 455.128 155.888 455.128 155.888C455.129 155.888 455.129 155.888 455.129 155.888C455.129 155.888 455.129 155.888 453.958 154.266C452.788 152.644 452.788 152.644 452.788 152.644C452.788 152.644 452.788 152.644 452.788 152.645C452.787 152.645 452.787 152.645 452.787 152.645C452.785 152.646 452.784 152.647 452.782 152.649C452.778 152.652 452.773 152.656 452.765 152.661C452.751 152.671 452.73 152.686 452.703 152.706C452.648 152.746 452.568 152.804 452.466 152.879C452.261 153.029 451.964 153.247 451.597 153.52C450.862 154.067 449.842 154.837 448.695 155.731C446.42 157.505 443.584 159.818 441.517 161.861L444.329 164.706ZM455.052 155.941L468.094 147.424L465.906 144.075L452.865 152.592L455.052 155.941ZM467 145.75C468.15 144.113 468.15 144.113 468.15 144.113C468.15 144.113 468.15 144.113 468.15 144.113C468.15 144.113 468.149 144.113 468.149 144.112C468.148 144.112 468.147 144.111 468.145 144.109C468.141 144.107 468.135 144.103 468.128 144.097C468.113 144.087 468.09 144.071 468.06 144.05C468 144.008 467.912 143.946 467.798 143.865C467.569 143.703 467.236 143.468 466.821 143.174C465.991 142.584 464.832 141.759 463.518 140.813C460.884 138.918 457.647 136.555 455.182 134.649L452.735 137.813C455.258 139.764 458.541 142.16 461.182 144.06C462.504 145.012 463.671 145.843 464.506 146.436C464.924 146.732 465.26 146.969 465.491 147.133C465.606 147.214 465.696 147.277 465.757 147.32C465.787 147.341 465.81 147.358 465.826 147.369C465.834 147.374 465.84 147.378 465.844 147.381C465.846 147.383 465.847 147.384 465.848 147.385C465.849 147.385 465.849 147.385 465.849 147.385C465.85 147.385 465.85 147.386 465.85 147.386C465.85 147.386 465.85 147.386 467 145.75ZM455.182 134.649C449.078 129.928 445.534 128.313 440.935 122.911L437.889 125.504C442.846 131.325 447.179 133.516 452.735 137.813L455.182 134.649ZM440.935 122.911C439.388 121.094 436.951 117.849 434.868 115.01C433.834 113.601 432.899 112.308 432.222 111.367C431.884 110.897 431.611 110.515 431.422 110.251C431.328 110.119 431.255 110.016 431.205 109.947C431.181 109.912 431.162 109.886 431.149 109.868C431.143 109.859 431.138 109.853 431.135 109.848C431.134 109.846 431.132 109.844 431.132 109.843C431.131 109.843 431.131 109.842 431.131 109.842C431.131 109.842 431.131 109.842 431.131 109.842C431.131 109.842 431.131 109.842 429.5 111C427.869 112.158 427.87 112.158 427.87 112.158C427.87 112.158 427.87 112.159 427.87 112.159C427.87 112.159 427.87 112.16 427.871 112.16C427.872 112.161 427.873 112.163 427.875 112.166C427.878 112.17 427.883 112.177 427.889 112.186C427.903 112.205 427.922 112.232 427.947 112.267C427.997 112.338 428.072 112.442 428.167 112.576C428.358 112.843 428.634 113.228 428.975 113.702C429.656 114.65 430.599 115.954 431.643 117.376C433.715 120.201 436.234 123.56 437.889 125.504L440.935 122.911ZM431.22 109.979L425.081 99.6403L421.641 101.683L427.78 112.021L431.22 109.979ZM425.121 99.7123L418.099 86.6869L414.578 88.5851L421.601 101.611L425.121 99.7123ZM416.339 87.636C418.131 86.7484 418.131 86.7484 418.131 86.7483C418.131 86.7482 418.131 86.7481 418.131 86.748C418.131 86.7477 418.13 86.7473 418.13 86.7468C418.13 86.7457 418.129 86.7442 418.128 86.7421C418.126 86.7379 418.123 86.7317 418.119 86.7235C418.11 86.707 418.098 86.6826 418.082 86.6504C418.051 86.5862 418.004 86.4914 417.943 86.3687C417.821 86.1235 417.644 85.7671 417.424 85.3225C416.982 84.4332 416.364 83.1906 415.659 81.7772C414.251 78.9519 412.492 75.4389 411.099 72.7013L407.534 74.5159C408.92 77.2379 410.672 80.7386 412.08 83.562C412.783 84.9731 413.4 86.2137 413.841 87.1015C414.061 87.5454 414.238 87.9011 414.359 88.1457C414.42 88.268 414.467 88.3625 414.498 88.4265C414.514 88.4585 414.526 88.4828 414.534 88.4991C414.538 88.5072 414.541 88.5134 414.543 88.5175C414.544 88.5196 414.545 88.5211 414.546 88.5221C414.546 88.5226 414.546 88.523 414.546 88.5233C414.546 88.5234 414.546 88.5235 414.546 88.5235C414.546 88.5236 414.546 88.5236 416.339 87.636ZM411.099 72.7013C408.245 67.0946 406.749 63.6765 403.525 58.0817L400.059 60.0788C403.216 65.556 404.591 68.7345 407.534 74.5159L411.099 72.7013ZM403.525 58.0817C399.9 51.7902 397.738 48.2362 393.365 42.3563L390.156 44.7435C394.4 50.4507 396.475 53.8584 400.059 60.0788L403.525 58.0817ZM393.365 42.3563C389.774 37.5273 387.759 34.3526 383.082 30.0539L380.375 32.999C384.703 36.9766 386.448 39.7588 390.156 44.7435L393.365 42.3563ZM383.082 30.0539C379.065 26.3622 376.499 24.3918 371.649 21.7538L369.738 25.2677C374.246 27.7195 376.548 29.4819 380.375 32.999L383.082 30.0539ZM371.649 21.7538C365.834 18.5912 362.089 17.1112 355.467 16.0263L354.82 19.9737C360.914 20.9721 364.233 22.274 369.738 25.2677L371.649 21.7538ZM355.467 16.0263C349.388 15.0303 345.759 15.4042 339.89 16.0106L340.301 19.9894C346.124 19.3878 349.301 19.0694 354.82 19.9737L355.467 16.0263ZM339.89 16.0106C335.396 16.4749 332.874 17.1137 328.629 18.051L329.492 21.9569C333.801 21.0054 336.082 20.4254 340.301 19.9894L339.89 16.0106ZM328.629 18.051C324.885 18.8777 322.623 20.035 320.505 21.4171C318.387 22.7987 316.757 24.1396 313.753 25.7332L315.627 29.2668C318.833 27.5661 320.913 25.9264 322.69 24.7673C324.466 23.6086 326.285 22.665 329.492 21.9569L328.629 18.051ZM159 265.572C158.11 263.781 158.11 263.781 158.11 263.781C158.11 263.781 158.11 263.781 158.11 263.781C158.11 263.781 158.11 263.781 158.109 263.782C158.108 263.782 158.107 263.783 158.105 263.784C158.101 263.786 158.095 263.789 158.086 263.793C158.069 263.801 158.043 263.814 158.009 263.831C157.94 263.865 157.837 263.915 157.703 263.98C157.436 264.111 157.044 264.299 156.553 264.532C155.571 264.997 154.194 265.636 152.617 266.33C149.436 267.728 145.535 269.306 142.422 270.156L143.475 274.014C146.888 273.083 151.013 271.404 154.227 269.992C155.846 269.28 157.258 268.624 158.266 268.147C158.77 267.908 159.174 267.713 159.453 267.578C159.592 267.51 159.7 267.457 159.774 267.421C159.811 267.402 159.839 267.388 159.859 267.379C159.868 267.374 159.876 267.37 159.881 267.368C159.884 267.366 159.886 267.365 159.887 267.365C159.888 267.364 159.888 267.364 159.889 267.364C159.889 267.364 159.889 267.364 159.889 267.364C159.89 267.363 159.89 267.363 159 265.572ZM109.306 272.645C105.964 271.845 101.923 269.732 98.6045 267.714C96.971 266.721 95.5591 265.781 94.5563 265.088C94.0555 264.743 93.6581 264.46 93.3877 264.265C93.2525 264.168 93.1492 264.092 93.0807 264.042C93.0464 264.017 93.0209 263.998 93.0044 263.986C92.9961 263.98 92.9902 263.975 92.9865 263.973C92.9847 263.971 92.9834 263.97 92.9828 263.97C92.9824 263.97 92.9823 263.969 92.9822 263.969C92.9822 263.969 92.9823 263.969 92.9823 263.969C92.9824 263.97 92.9825 263.97 91.7859 265.572C90.5893 267.175 90.5896 267.175 90.5898 267.175C90.59 267.175 90.5903 267.175 90.5906 267.176C90.5911 267.176 90.5918 267.177 90.5927 267.177C90.5944 267.179 90.5967 267.18 90.5995 267.182C90.6053 267.187 90.6134 267.193 90.6238 267.2C90.6445 267.216 90.6745 267.238 90.7133 267.266C90.7908 267.323 90.9036 267.406 91.0488 267.51C91.339 267.719 91.7588 268.018 92.2844 268.381C93.3345 269.105 94.8124 270.09 96.5266 271.132C99.9031 273.185 104.39 275.581 108.375 276.535L109.306 272.645ZM91.7859 265.572C93.1978 264.156 93.1978 264.156 93.1978 264.156C93.1977 264.156 93.1977 264.156 93.1976 264.155C93.1974 264.155 93.197 264.155 93.1965 264.154C93.1955 264.153 93.194 264.152 93.1919 264.15C93.1877 264.146 93.1812 264.139 93.1726 264.13C93.1553 264.113 93.1293 264.087 93.095 264.053C93.0264 263.984 92.9245 263.882 92.7928 263.749C92.5292 263.483 92.1459 263.095 91.6695 262.609C90.7164 261.635 89.3919 260.267 87.9072 258.693C84.9253 255.529 81.3446 251.58 78.8218 248.318L75.6574 250.764C78.3058 254.189 81.9983 258.256 84.9967 261.436C86.5022 263.033 87.8447 264.42 88.811 265.407C89.2943 265.901 89.6839 266.295 89.9532 266.566C90.0879 266.702 90.1925 266.807 90.2638 266.878C90.2994 266.914 90.3267 266.941 90.3452 266.96C90.3545 266.969 90.3615 266.976 90.3664 266.981C90.3688 266.984 90.3707 266.985 90.3719 266.987C90.3726 266.987 90.3731 266.988 90.3735 266.988C90.3736 266.988 90.3738 266.989 90.3739 266.989C90.374 266.989 90.3741 266.989 91.7859 265.572ZM78.8218 248.318C73.8739 241.919 71.4064 238.106 67.4483 231.03L63.9574 232.983C68.0025 240.214 70.5773 244.194 75.6574 250.764L78.8218 248.318ZM67.4483 231.03C65.5902 227.708 63.4871 223.264 61.835 219.615C61.0123 217.797 60.3075 216.19 59.8085 215.038C59.559 214.463 59.3612 214.001 59.226 213.683C59.1584 213.525 59.1065 213.402 59.0716 213.32C59.0541 213.279 59.0409 213.247 59.0322 213.227C59.0278 213.216 59.0245 213.209 59.0224 213.203C59.0213 213.201 59.0205 213.199 59.02 213.198C59.0198 213.197 59.0196 213.197 59.0195 213.197C59.0195 213.196 59.0194 213.196 59.0194 213.196C59.0194 213.196 59.0194 213.196 57.1757 213.971C55.332 214.747 55.3321 214.747 55.3321 214.747C55.3322 214.747 55.3323 214.747 55.3323 214.747C55.3325 214.748 55.3328 214.748 55.3331 214.749C55.3337 214.751 55.3347 214.753 55.3359 214.756C55.3383 214.762 55.3419 214.77 55.3466 214.781C55.3559 214.803 55.3697 214.836 55.3878 214.879C55.424 214.964 55.4772 215.09 55.5462 215.252C55.6842 215.575 55.8851 216.044 56.138 216.628C56.6436 217.795 57.3574 219.423 58.191 221.264C59.8517 224.933 62.0122 229.506 63.9574 232.983L67.4483 231.03ZM58.9544 213.057L49.424 194.521L45.8667 196.35L55.397 214.886L58.9544 213.057ZM49.3639 194.412L38.3287 175.876L34.8917 177.922L45.9268 196.458L49.3639 194.412ZM38.3287 175.876C36.1451 172.208 34.6097 169.996 32.9947 168.1C31.4084 166.237 29.7533 164.696 27.4827 162.451L24.6706 165.296C27.0525 167.65 28.5094 169.002 29.9495 170.693C31.3607 172.35 32.7659 174.351 34.8917 177.922L38.3287 175.876ZM27.4827 162.451C25.4161 160.408 22.58 158.095 20.3047 156.32C19.1582 155.426 18.1376 154.657 17.4031 154.11C17.0357 153.837 16.7394 153.619 16.5343 153.469C16.4317 153.394 16.3518 153.336 16.2972 153.296C16.2699 153.276 16.2489 153.261 16.2345 153.251C16.2274 153.245 16.2218 153.241 16.218 153.239C16.2161 153.237 16.2146 153.236 16.2135 153.235C16.213 153.235 16.2125 153.235 16.2122 153.234C16.2121 153.234 16.2119 153.234 16.2118 153.234C16.2117 153.234 16.2116 153.234 15.0415 154.856C13.8715 156.478 13.8714 156.478 13.8714 156.478C13.8714 156.478 13.8714 156.478 13.8715 156.478C13.8716 156.478 13.8718 156.478 13.8722 156.479C13.8728 156.479 13.8739 156.48 13.8754 156.481C13.8784 156.483 13.883 156.486 13.8894 156.491C13.902 156.5 13.9212 156.514 13.9467 156.533C13.9977 156.57 14.0738 156.625 14.1725 156.697C14.3698 156.841 14.6573 157.053 15.0152 157.319C15.7314 157.852 16.7275 158.603 17.8451 159.475C20.0978 161.231 22.7794 163.426 24.6706 165.296L27.4827 162.451ZM16.1351 153.181L3.09355 144.665L0.906448 148.014L13.948 156.531L16.1351 153.181ZM2 146.339C3.15016 147.976 3.15022 147.976 3.1503 147.975C3.15037 147.975 3.15048 147.975 3.15062 147.975C3.1509 147.975 3.1513 147.975 3.15182 147.974C3.15286 147.974 3.15439 147.973 3.15639 147.971C3.16041 147.968 3.16635 147.964 3.17418 147.959C3.18983 147.948 3.21301 147.931 3.24338 147.91C3.30413 147.867 3.39365 147.804 3.50922 147.722C3.74036 147.559 4.07575 147.322 4.49366 147.026C5.32938 146.433 6.49567 145.602 7.8185 144.65C10.4589 142.75 13.7425 140.354 16.265 138.403L13.818 135.239C11.3528 137.145 8.11558 139.508 5.48216 141.403C4.16808 142.349 3.00921 143.174 2.17899 143.763C1.76393 144.058 1.43116 144.293 1.20238 144.455C1.08799 144.535 0.99961 144.598 0.939946 144.64C0.910115 144.661 0.887464 144.677 0.872333 144.687C0.864767 144.693 0.859081 144.697 0.855318 144.699C0.853437 144.701 0.852036 144.702 0.851121 144.702C0.850663 144.703 0.850327 144.703 0.850114 144.703C0.850007 144.703 0.849938 144.703 0.849884 144.703C0.849846 144.703 0.849839 144.703 2 146.339ZM16.265 138.403C21.8212 134.106 26.1542 131.915 31.1106 126.094L28.0651 123.501C23.4655 128.903 19.9221 130.518 13.818 135.239L16.265 138.403ZM31.1106 126.094C32.7659 124.15 35.285 120.791 37.3573 117.966C38.401 116.544 39.3437 115.24 40.0253 114.292C40.3663 113.818 40.6421 113.433 40.833 113.165C40.9284 113.032 41.0026 112.928 41.053 112.857C41.0782 112.822 41.0975 112.795 41.1105 112.776C41.117 112.767 41.122 112.76 41.1253 112.755C41.127 112.753 41.1283 112.751 41.1291 112.75C41.1296 112.749 41.1299 112.749 41.1301 112.749C41.1303 112.748 41.1304 112.748 41.1304 112.748C41.1305 112.748 41.1305 112.748 39.5 111.59C37.8695 110.432 37.8695 110.432 37.8694 110.432C37.8694 110.432 37.8693 110.432 37.8692 110.432C37.8691 110.432 37.8688 110.433 37.8684 110.433C37.8676 110.434 37.8665 110.436 37.8649 110.438C37.8618 110.442 37.8571 110.449 37.8508 110.458C37.8383 110.476 37.8195 110.502 37.7947 110.537C37.7453 110.606 37.6722 110.709 37.5779 110.841C37.3893 111.105 37.1159 111.487 36.7778 111.957C36.1013 112.898 35.1664 114.191 34.1323 115.6C32.0492 118.439 29.6122 121.684 28.0651 123.501L31.1106 126.094ZM41.2197 112.611L47.3586 102.272L43.9193 100.23L37.7803 110.569L41.2197 112.611ZM47.3994 102.2L54.4218 89.175L50.9009 87.2768L43.8785 100.302L47.3994 102.2ZM52.6613 88.2259C54.4536 89.1135 54.4536 89.1134 54.4536 89.1134C54.4537 89.1133 54.4537 89.1132 54.4538 89.1131C54.4539 89.1129 54.4541 89.1125 54.4543 89.112C54.4548 89.1109 54.4556 89.1094 54.4566 89.1073C54.4587 89.1032 54.4617 89.0971 54.4657 89.0889C54.4738 89.0726 54.4859 89.0483 54.5017 89.0163C54.5334 88.9524 54.5803 88.8578 54.6409 88.7355C54.7622 88.4909 54.9386 88.1352 55.1591 87.6913C55.5999 86.8035 56.2167 85.5629 56.9202 84.1519C58.328 81.3284 60.0805 77.8277 61.4661 75.1058L57.9013 73.2912C56.5078 76.0287 54.7492 79.5417 53.3405 82.3671C52.6358 83.7805 52.0181 85.023 51.5765 85.9123C51.3557 86.357 51.1789 86.7133 51.0573 86.9586C50.9965 87.0812 50.9495 87.1761 50.9176 87.2403C50.9017 87.2724 50.8896 87.2969 50.8815 87.3133C50.8774 87.3215 50.8743 87.3277 50.8722 87.3319C50.8712 87.334 50.8704 87.3356 50.8699 87.3366C50.8696 87.3372 50.8694 87.3376 50.8693 87.3378C50.8692 87.338 50.8692 87.3381 50.8691 87.3381C50.8691 87.3382 50.8691 87.3382 52.6613 88.2259ZM61.4661 75.1058C64.409 69.3243 65.7844 66.1459 68.9405 60.6686L65.4748 58.6715C62.2508 64.2664 60.7554 67.6844 57.9013 73.2912L61.4661 75.1058ZM68.9405 60.6686C72.525 54.4482 74.5996 51.0406 78.8444 45.3333L75.6348 42.9462C71.2617 48.826 69.1002 52.38 65.4748 58.6715L68.9405 60.6686ZM78.8444 45.3333C82.5518 40.3487 84.2972 37.5664 88.6249 33.5888L85.9182 30.6437C81.2411 34.9424 79.2264 38.1171 75.6348 42.9462L78.8444 45.3333ZM88.6249 33.5888C92.4516 30.0718 94.7544 28.3093 99.2623 25.8576L97.3511 22.3437C92.5008 24.9817 89.9348 26.9521 85.9182 30.6437L88.6249 33.5888ZM99.2623 25.8576C104.767 22.8638 108.086 21.5619 114.18 20.5635L113.533 16.6162C106.911 17.7011 103.166 19.1811 97.3511 22.3437L99.2623 25.8576ZM114.18 20.5635C119.699 19.6593 122.876 19.9777 128.699 20.5793L129.11 16.6004C123.241 15.9941 119.612 15.6201 113.533 16.6162L114.18 20.5635ZM128.699 20.5793C132.918 21.0153 135.199 21.5953 139.508 22.5467L140.371 18.6408C136.126 17.7036 133.604 17.0648 129.11 16.6004L128.699 20.5793ZM139.508 22.5467C146.462 24.0823 150.233 24.8524 156.177 28.0056L158.051 24.472C151.575 21.0366 147.319 20.175 140.371 18.6408L139.508 22.5467ZM111.95 79H358.05V75H111.95V79ZM356.32 75.996L233.27 287.996L236.73 290.004L359.78 78.004L356.32 75.996ZM236.73 287.996L113.68 75.996L110.22 78.004L233.27 290.004L236.73 287.996ZM373 145.5C373 223.695 311.169 287 235 287V291C313.471 291 377 225.811 377 145.5H373ZM235 287C158.831 287 97 223.695 97 145.5H93C93 225.811 156.529 291 235 291V287ZM97 145.5C97 67.3049 158.831 4 235 4V0C156.529 0 93 65.1894 93 145.5H97ZM235 4C311.169 4 373 67.3049 373 145.5H377C377 65.1894 313.471 0 235 0V4ZM325.525 273.425C335.776 276.222 349.759 278.547 360.625 275.945L359.694 272.055C349.852 274.411 336.691 272.326 326.578 269.566L325.525 273.425ZM142.422 270.156C132.309 272.915 119.148 275.001 109.306 272.645L108.375 276.535C119.241 279.137 133.224 276.812 143.475 274.014L142.422 270.156Z" fill="#282828"/>
</svg>
